<svg width="13" height="13" viewBox="0 0 13 13" fill="none" xmlns="http://www.w3.org/2000/svg">
<path d="M6.5 12.75C3.04813 12.75 0.25 9.95187 0.25 6.5C0.25 3.04813 3.04813 0.25 6.5 0.25C9.95187 0.25 12.75 3.04813 12.75 6.5C12.75 9.95187 9.95187 12.75 6.5 12.75ZM6.5 11.5C7.82608 11.5 9.09785 10.9732 10.0355 10.0355C10.9732 9.09785 11.5 7.82608 11.5 6.5C11.5 5.17392 10.9732 3.90215 10.0355 2.96447C9.09785 2.02678 7.82608 1.5 6.5 1.5C5.17392 1.5 3.90215 2.02678 2.96447 2.96447C2.02678 3.90215 1.5 5.17392 1.5 6.5C1.5 7.82608 2.02678 9.09785 2.96447 10.0355C3.90215 10.9732 5.17392 11.5 6.5 11.5ZM3.375 5.875H9.625V7.125H3.375V5.875Z" fill="#666666"/>
</svg>
