<svg width="13" height="13" viewBox="0 0 13 13" fill="none" xmlns="http://www.w3.org/2000/svg">
<path d="M0.909378 7.12505H2.16875C2.32019 8.16554 2.84117 9.11672 3.6364 9.80459C4.43162 10.4925 5.44793 10.871 6.49938 10.871C7.55083 10.871 8.56713 10.4925 9.36236 9.80459C10.1576 9.11672 10.6786 8.16554 10.83 7.12505H12.09C11.9359 8.49996 11.2806 9.76988 10.2492 10.6921C9.2179 11.6143 7.8829 12.1241 6.49938 12.1241C5.11586 12.1241 3.78085 11.6143 2.74952 10.6921C1.71818 9.76988 1.06284 8.49996 0.908752 7.12505H0.909378ZM0.909378 5.87505C1.06347 4.50014 1.71881 3.23022 2.75014 2.30801C3.78148 1.3858 5.11648 0.875977 6.5 0.875977C7.88352 0.875977 9.21853 1.3858 10.2499 2.30801C11.2812 3.23022 11.9365 4.50014 12.0906 5.87505H10.8313C10.6798 4.83456 10.1588 3.88337 9.36361 3.19551C8.56838 2.50764 7.55208 2.12908 6.50063 2.12908C5.44918 2.12908 4.43287 2.50764 3.63765 3.19551C2.84242 3.88337 2.32144 4.83456 2.17 5.87505H0.909378Z" fill="#F97B5C"/>
</svg>
