<svg width="18" height="18" viewBox="0 0 18 18" fill="none" xmlns="http://www.w3.org/2000/svg">
<path d="M8.99999 17.3333C4.39749 17.3333 0.666656 13.6025 0.666656 8.99996C0.666656 4.39746 4.39749 0.666626 8.99999 0.666626C13.6025 0.666626 17.3333 4.39746 17.3333 8.99996C17.3333 13.6025 13.6025 17.3333 8.99999 17.3333ZM8.99999 15.6666C10.7681 15.6666 12.4638 14.9642 13.714 13.714C14.9643 12.4638 15.6667 10.7681 15.6667 8.99996C15.6667 7.23185 14.9643 5.53616 13.714 4.28591C12.4638 3.03567 10.7681 2.33329 8.99999 2.33329C7.23188 2.33329 5.53619 3.03567 4.28594 4.28591C3.0357 5.53616 2.33332 7.23185 2.33332 8.99996C2.33332 10.7681 3.0357 12.4638 4.28594 13.714C5.53619 14.9642 7.23188 15.6666 8.99999 15.6666ZM9.83332 8.99996H13.1667V10.6666H8.16666V4.83329H9.83332V8.99996Z" fill="#303030"/>
</svg>
