<svg width="116" height="27" viewBox="0 0 116 27" fill="none" xmlns="http://www.w3.org/2000/svg">
<path fill-rule="evenodd" clip-rule="evenodd" d="M8.58095 22.8503C8.57698 22.9122 8.57491 22.9745 8.57471 23.0374C8.56888 24.7377 9.9481 26.1208 11.6552 26.1266C13.3623 26.1323 14.7509 24.7586 14.7567 23.0582C14.7569 22.9946 14.7551 22.9314 14.7515 22.8688C18.8028 21.6685 21.8512 18.1414 22.3288 13.8386C22.1942 13.8617 22.0559 13.8735 21.9147 13.873C21.8783 13.8729 21.8421 13.872 21.8061 13.8703C21.323 17.8993 18.4694 21.1997 14.678 22.3544C14.3631 20.992 13.1402 19.974 11.6761 19.9691C10.2113 19.9641 8.98097 20.975 8.65761 22.3363C4.50651 21.0449 1.50012 17.1788 1.51561 12.6204C1.52076 11.1046 1.85956 9.66754 2.46249 8.37805C2.31903 8.27165 2.18388 8.15478 2.05819 8.02856C1.38518 9.4172 1.00565 10.9738 1.00006 12.6186C0.98369 17.436 4.17974 21.5176 8.58095 22.8503ZM7.46606 3.42794C8.76469 2.83616 10.2097 2.50844 11.7315 2.51358C16.1338 2.52842 19.8741 5.32398 21.2815 9.22479C21.4473 9.17862 21.6204 9.14992 21.7987 9.14078C20.3454 4.99575 16.3922 2.01577 11.7333 2.00006C10.0819 1.99452 8.5166 2.36199 7.1179 3.02288C7.24375 3.14895 7.36021 3.28436 7.46606 3.42794Z" fill="#282828"/>
<path d="M4.24952 2.00002C2.46093 1.99399 1.00607 3.4333 1.00002 5.2148C0.993962 6.99631 2.43899 8.4454 4.22758 8.45143C6.01617 8.45746 7.47103 7.01815 7.47709 5.23665C7.48314 3.45514 6.03811 2.00605 4.24952 2.00002Z" stroke="#282828" stroke-width="0.5"/>
<path d="M22.5085 9.00001C21.1278 8.99534 20.0047 10.1108 20 11.4915C19.9953 12.8722 21.1108 13.9953 22.4915 14C23.8722 14.0047 24.9953 12.8892 25 11.5085C25.0047 10.1278 23.8892 9.00469 22.5085 9.00001Z" stroke="#282828" stroke-width="0.5"/>
<path d="M30 18.5482C30 16.8536 30.5259 15.6109 31.5776 14.82C32.6396 14.0292 34.0368 13.6338 35.7691 13.6338C36.3052 13.6338 36.8775 13.6595 37.4859 13.7109C38.0942 13.7519 38.6871 13.8238 39.2645 13.9265V12.2936C39.2645 11.1125 39.0016 10.2806 38.4757 9.79784C37.9602 9.30487 37.2693 9.05838 36.4032 9.05838C35.5474 9.05838 34.6916 9.18676 33.8357 9.44351C32.9799 9.69 32.1396 9.99806 31.3147 10.3679C31.1188 10.2036 30.9435 9.95706 30.7888 9.62838C30.6341 9.28946 30.5568 8.97622 30.5568 8.68865C31.3095 8.36 32.222 8.03649 33.2944 7.71811C34.3668 7.39973 35.4494 7.24054 36.5424 7.24054C38.1612 7.24054 39.3573 7.68216 40.1306 8.56541C40.904 9.44865 41.2906 10.7119 41.2906 12.3552V18.7022C41.2906 19.3698 41.337 19.9552 41.4298 20.4584C41.5226 20.9617 41.7649 21.3981 42.1568 21.7679C42.0743 21.9733 41.9402 22.1838 41.7546 22.3995C41.5793 22.6049 41.3731 22.759 41.136 22.8617C40.6101 22.6357 40.2028 22.3379 39.9141 21.9681C39.6357 21.5881 39.4501 21.1414 39.3573 20.6279C38.7799 21.1927 38.0736 21.7319 37.2384 22.2454C36.4135 22.759 35.4803 23.0157 34.4389 23.0157C33.4491 23.0157 32.6242 22.7949 31.9643 22.3533C31.3044 21.9117 30.8094 21.3519 30.4795 20.6741C30.1598 19.986 30 19.2773 30 18.5482ZM32.1499 18.3941C32.1499 19.1746 32.3612 19.8371 32.784 20.3814C33.2171 20.9257 33.846 21.1979 34.6709 21.1979C35.403 21.1979 36.1815 20.9822 37.0064 20.5509C37.8416 20.1092 38.5943 19.4519 39.2645 18.579V15.4671C38.718 15.3849 38.1406 15.3284 37.5323 15.2976C36.9342 15.2565 36.3465 15.236 35.7691 15.236C34.6658 15.236 33.7842 15.5133 33.1243 16.0679C32.4747 16.6122 32.1499 17.3876 32.1499 18.3941ZM58.1782 19.796C58.1782 20.289 58.1988 20.7614 58.24 21.2133C58.2813 21.6549 58.3741 22.0452 58.5184 22.3841C58.1782 22.6819 57.7296 22.8309 57.1728 22.8309C56.4511 22.8309 56.0902 22.3687 56.0902 21.4444V12.7403C56.0902 11.4873 55.9303 10.5836 55.6107 10.029C55.291 9.46405 54.6724 9.18162 53.7547 9.18162C52.9194 9.18162 52.0378 9.41784 51.1098 9.89026C50.1921 10.3627 49.4291 10.9482 48.8207 11.6465V22.646C48.5526 22.7076 48.2124 22.7384 47.7999 22.7384C47.3565 22.7384 47.0008 22.7076 46.7327 22.646V7.64108L46.9183 7.45622H47.7071C48.1917 7.45622 48.4959 7.5846 48.6197 7.84135C48.7537 8.08784 48.8207 8.44216 48.8207 8.90433V9.53595C49.5116 8.85811 50.3365 8.31379 51.2954 7.90297C52.2646 7.48189 53.2391 7.27135 54.2187 7.27135C55.2086 7.27135 55.9871 7.49216 56.5542 7.93378C57.1316 8.36514 57.544 8.94541 57.7915 9.6746C58.0493 10.3936 58.1782 11.1844 58.1782 12.0471V19.796ZM65.646 22.646C65.3779 22.7076 65.0376 22.7384 64.6252 22.7384C64.2024 22.7384 63.857 22.7076 63.5889 22.646V0.184865L63.7745 0H64.5324C65.017 0 65.3212 0.128378 65.4449 0.385135C65.579 0.631622 65.646 0.99108 65.646 1.46351V14.019L67.0535 13.9419C67.3009 13.9419 67.5278 13.8136 67.734 13.5568L71.1676 8.5346C71.3944 8.19568 71.6161 7.93378 71.8326 7.74892C72.0492 7.55378 72.3894 7.45622 72.8534 7.45622C73.0494 7.45622 73.2195 7.46135 73.3638 7.47162C73.5082 7.47162 73.6783 7.47676 73.8743 7.48703L74.0598 7.73351L70.0076 13.5568C69.8014 13.8649 69.5797 14.1217 69.3425 14.3271C70.0849 14.4606 70.683 14.7533 71.1366 15.2052C71.6006 15.6571 72.0286 16.3144 72.4204 17.1771L73.6577 19.9192C73.8949 20.443 74.1372 20.9103 74.3846 21.3211C74.6321 21.7217 74.8847 22.0144 75.1425 22.1992C75.0291 22.3636 74.8383 22.5125 74.5702 22.646C74.3022 22.7692 74.0289 22.8309 73.7505 22.8309C73.2659 22.8309 72.9102 22.6922 72.6833 22.4149C72.4668 22.1273 72.2502 21.7473 72.0337 21.2749L70.5644 18.0244C70.1622 17.1309 69.755 16.5198 69.3425 16.1911C68.9301 15.8625 68.2702 15.6982 67.3628 15.6982C66.9297 15.6982 66.3575 15.729 65.646 15.7906V22.646ZM89.5683 15.0973C89.5683 16.6173 89.326 17.9781 88.8413 19.1798C88.367 20.3711 87.6556 21.3109 86.7069 21.999C85.7583 22.6768 84.5829 23.0157 83.1805 23.0157C81.7679 23.0157 80.5873 22.6717 79.6387 21.9836C78.7004 21.2852 77.9941 20.3403 77.5197 19.149C77.0557 17.9473 76.8237 16.5968 76.8237 15.0973C76.8237 13.5876 77.0609 12.2371 77.5352 11.0457C78.0198 9.85433 78.7313 8.9146 79.6696 8.22649C80.6182 7.52811 81.7885 7.17892 83.1805 7.17892C84.5932 7.17892 85.7738 7.52811 86.7224 8.22649C87.671 8.9146 88.3825 9.85433 88.8568 11.0457C89.3311 12.2371 89.5683 13.5876 89.5683 15.0973ZM79.0045 15.0973C79.0045 16.1244 79.1334 17.1206 79.3912 18.086C79.649 19.0411 80.0821 19.8268 80.6904 20.443C81.3091 21.049 82.1494 21.3519 83.2115 21.3519C84.2632 21.3519 85.0933 21.049 85.7016 20.443C86.31 19.8268 86.743 19.0411 87.0008 18.086C87.2586 17.1206 87.3875 16.1244 87.3875 15.0973C87.3875 14.0806 87.2586 13.0946 87.0008 12.1395C86.743 11.1741 86.31 10.3781 85.7016 9.75162C85.0933 9.12514 84.2632 8.81189 83.2115 8.81189C82.1494 8.81189 81.3091 9.12514 80.6904 9.75162C80.0821 10.3781 79.649 11.1741 79.3912 12.1395C79.1334 13.0946 79.0045 14.0806 79.0045 15.0973ZM93.1736 8.51919C93.2354 8.32405 93.354 8.10838 93.5293 7.87216C93.7149 7.63595 93.916 7.45622 94.1325 7.33297C94.6996 7.55892 95.1533 7.90811 95.4936 8.38054C95.8441 8.8427 96.0864 9.40757 96.2205 10.0752C96.5917 9.30487 97.1176 8.65784 97.7981 8.13405C98.4786 7.6 99.3396 7.33297 100.381 7.33297C100.525 7.33297 100.716 7.34324 100.953 7.36378C101.201 7.38432 101.469 7.41514 101.758 7.45622C101.758 7.79514 101.722 8.14433 101.649 8.50378C101.587 8.86324 101.464 9.18162 101.278 9.45892C101.113 9.43838 100.938 9.42811 100.752 9.42811C100.577 9.42811 100.407 9.42811 100.242 9.42811C99.5407 9.42811 98.9375 9.57703 98.4322 9.87487C97.9373 10.1625 97.5197 10.5322 97.1794 10.9841C96.8495 11.4257 96.5814 11.8827 96.3752 12.3552V22.646C96.1071 22.7076 95.7668 22.7384 95.3543 22.7384C94.911 22.7384 94.5552 22.7076 94.2872 22.646V11.6619C94.2872 10.9122 94.1686 10.2703 93.9314 9.73622C93.7046 9.20216 93.452 8.79649 93.1736 8.51919ZM103.436 18.5482C103.436 16.8536 103.962 15.6109 105.014 14.82C106.076 14.0292 107.473 13.6338 109.205 13.6338C109.742 13.6338 110.314 13.6595 110.922 13.7109C111.53 13.7519 112.123 13.8238 112.701 13.9265V12.2936C112.701 11.1125 112.438 10.2806 111.912 9.79784C111.396 9.30487 110.706 9.05838 109.839 9.05838C108.984 9.05838 108.128 9.18676 107.272 9.44351C106.416 9.69 105.576 9.99806 104.751 10.3679C104.555 10.2036 104.38 9.95706 104.225 9.62838C104.07 9.28946 103.993 8.97622 103.993 8.68865C104.746 8.36 105.658 8.03649 106.731 7.71811C107.803 7.39973 108.886 7.24054 109.979 7.24054C111.597 7.24054 112.794 7.68216 113.567 8.56541C114.34 9.44865 114.727 10.7119 114.727 12.3552V18.7022C114.727 19.3698 114.773 19.9552 114.866 20.4584C114.959 20.9617 115.201 21.3981 115.593 21.7679C115.511 21.9733 115.377 22.1838 115.191 22.3995C115.016 22.6049 114.809 22.759 114.572 22.8617C114.046 22.6357 113.639 22.3379 113.35 21.9681C113.072 21.5881 112.886 21.1414 112.794 20.6279C112.216 21.1927 111.51 21.7319 110.675 22.2454C109.85 22.759 108.917 23.0157 107.875 23.0157C106.885 23.0157 106.06 22.7949 105.401 22.3533C104.741 21.9117 104.246 21.3519 103.916 20.6741C103.596 19.986 103.436 19.2773 103.436 18.5482ZM105.586 18.3941C105.586 19.1746 105.797 19.8371 106.22 20.3814C106.653 20.9257 107.282 21.1979 108.107 21.1979C108.839 21.1979 109.618 20.9822 110.443 20.5509C111.278 20.1092 112.031 19.4519 112.701 18.579V15.4671C112.154 15.3849 111.577 15.3284 110.969 15.2976C110.37 15.2565 109.783 15.236 109.205 15.236C108.102 15.236 107.22 15.5133 106.561 16.0679C105.911 16.6122 105.586 17.3876 105.586 18.3941Z" fill="#282828"/>
</svg>
