<svg width="20" height="18" viewBox="0 0 20 18" fill="none" xmlns="http://www.w3.org/2000/svg">
<path d="M15 13.1666V17.3333H13.3333V13.1666C13.3333 9.45746 15.5367 6.26246 18.7058 4.81996L19.3958 6.33663C18.0848 6.93294 16.9731 7.89408 16.1936 9.10523C15.4141 10.3164 14.9997 11.7263 15 13.1666ZM6.66666 13.1666V17.3333H4.99999V13.1666C5.00011 11.7265 4.58568 10.3167 3.80619 9.10571C3.0267 7.89473 1.9151 6.93372 0.604156 6.33746L1.29416 4.81996C2.8964 5.5487 4.25499 6.72326 5.20768 8.20334C6.16036 9.68341 6.66685 11.4064 6.66666 13.1666ZM9.99999 8.99996C8.89492 8.99996 7.83511 8.56097 7.05371 7.77957C6.27231 6.99817 5.83332 5.93836 5.83332 4.83329C5.83332 3.72822 6.27231 2.66842 7.05371 1.88701C7.83511 1.10561 8.89492 0.666626 9.99999 0.666626C11.1051 0.666626 12.1649 1.10561 12.9463 1.88701C13.7277 2.66842 14.1667 3.72822 14.1667 4.83329C14.1667 5.93836 13.7277 6.99817 12.9463 7.77957C12.1649 8.56097 11.1051 8.99996 9.99999 8.99996ZM9.99999 7.33329C10.3283 7.33329 10.6534 7.26863 10.9567 7.14299C11.26 7.01736 11.5356 6.83321 11.7678 6.60106C11.9999 6.36891 12.1841 6.09332 12.3097 5.79C12.4353 5.48669 12.5 5.1616 12.5 4.83329C12.5 4.50499 12.4353 4.1799 12.3097 3.87658C12.1841 3.57327 11.9999 3.29767 11.7678 3.06553C11.5356 2.83338 11.26 2.64923 10.9567 2.52359C10.6534 2.39796 10.3283 2.33329 9.99999 2.33329C9.33695 2.33329 8.70106 2.59668 8.23222 3.06553C7.76338 3.53437 7.49999 4.17025 7.49999 4.83329C7.49999 5.49633 7.76338 6.13222 8.23222 6.60106C8.70106 7.0699 9.33695 7.33329 9.99999 7.33329Z" fill="#484848"/>
</svg>
